<?xml version="1.0" encoding="UTF-8" standalone="no"?>
<!DOCTYPE svg PUBLIC "-//W3C//DTD SVG 1.1//EN"
 "http://www.w3.org/Graphics/SVG/1.1/DTD/svg11.dtd">
<!-- Generated by graphviz version 2.28.0 (20120216.1600)
 -->
<!-- Title: bugs Pages: 1 -->
<svg width="1264pt" height="783pt"
 viewBox="0.00 0.00 1264.00 783.00" xmlns="http://www.w3.org/2000/svg" xmlns:xlink="http://www.w3.org/1999/xlink">
<g id="graph1" class="graph" transform="scale(1 1) rotate(0) translate(4 779)">
<title>bugs</title>
<polygon fill="white" stroke="white" points="-4,5 -4,-779 1261,-779 1261,5 -4,5"/>
<text text-anchor="middle" x="628" y="-7.8" font-family="Times,serif" font-size="14.00">HP&#45;SMB Bugs</text>
<g id="graph2" class="cluster"><title>cluster_legend</title>
<polygon fill="none" stroke="black" points="8,-674 8,-767 458,-767 458,-674 8,-674"/>
<text text-anchor="middle" x="233" y="-751.8" font-family="Times,serif" font-size="14.00">Legend</text>
</g>
<!-- MASTER -->
<g id="node2" class="node"><title>MASTER</title>
<ellipse fill="none" stroke="red" cx="404" cy="-709" rx="46.2191" ry="18"/>
<text text-anchor="middle" x="404" y="-705.3" font-family="Times,serif" font-size="14.00">MASTER</text>
</g>
<!-- WONTF -->
<g id="node3" class="node"><title>WONTF</title>
<ellipse fill="#e0e0e0" stroke="#e0e0e0" cx="296" cy="-709" rx="44.2946" ry="18"/>
<text text-anchor="middle" x="296" y="-705.3" font-family="Times,serif" font-size="14.00">Won&#39;t fix</text>
</g>
<!-- FIX -->
<g id="node4" class="node"><title>FIX</title>
<ellipse fill="green" stroke="green" cx="203" cy="-709" rx="30.3206" ry="18"/>
<text text-anchor="middle" x="203" y="-705.3" font-family="Times,serif" font-size="14.00">Fixed</text>
</g>
<!-- TRB -->
<g id="node5" class="node"><title>TRB</title>
<ellipse fill="none" stroke="black" cx="85" cy="-709" rx="68.9457" ry="26.7407"/>
<text text-anchor="middle" x="85" y="-712.8" font-family="Times,serif" font-size="14.00">Target Release</text>
<text text-anchor="middle" x="85" y="-697.8" font-family="Times,serif" font-size="14.00">color</text>
</g>
<!-- 55 -->
<g id="node6" class="node"><title>55</title>
<ellipse fill="none" stroke="black" cx="384" cy="-617" rx="27" ry="18"/>
<text text-anchor="middle" x="384" y="-613.3" font-family="Times,serif" font-size="14.00">5.5</text>
</g>
<!-- 56 -->
<g id="node7" class="node"><title>56</title>
<ellipse fill="none" stroke="black" cx="384" cy="-545" rx="27" ry="18"/>
<text text-anchor="middle" x="384" y="-541.3" font-family="Times,serif" font-size="14.00">5.6</text>
</g>
<!-- 55&#45;&gt;56 -->
<g id="edge4" class="edge"><title>55&#45;&gt;56</title>
<path fill="none" stroke="black" d="M384,-598.697C384,-590.983 384,-581.712 384,-573.112"/>
<polygon fill="black" stroke="black" points="387.5,-573.104 384,-563.104 380.5,-573.104 387.5,-573.104"/>
</g>
<!-- 60 -->
<g id="node8" class="node"><title>60</title>
<ellipse fill="none" stroke="black" cx="384" cy="-473" rx="27" ry="18"/>
<text text-anchor="middle" x="384" y="-469.3" font-family="Times,serif" font-size="14.00">6.0</text>
</g>
<!-- 56&#45;&gt;60 -->
<g id="edge5" class="edge"><title>56&#45;&gt;60</title>
<path fill="none" stroke="black" d="M384,-526.697C384,-518.983 384,-509.712 384,-501.112"/>
<polygon fill="black" stroke="black" points="387.5,-501.104 384,-491.104 380.5,-501.104 387.5,-501.104"/>
</g>
<!-- 61 -->
<g id="node9" class="node"><title>61</title>
<ellipse fill="none" stroke="black" cx="384" cy="-401" rx="27" ry="18"/>
<text text-anchor="middle" x="384" y="-397.3" font-family="Times,serif" font-size="14.00">6.1</text>
</g>
<!-- 60&#45;&gt;61 -->
<g id="edge6" class="edge"><title>60&#45;&gt;61</title>
<path fill="none" stroke="black" d="M384,-454.697C384,-446.983 384,-437.712 384,-429.112"/>
<polygon fill="black" stroke="black" points="387.5,-429.104 384,-419.104 380.5,-429.104 387.5,-429.104"/>
</g>
<!-- m60 -->
<g id="node10" class="node"><title>m60</title>
<ellipse fill="pink" stroke="pink" cx="384" cy="-329" rx="44.271" ry="18"/>
<text text-anchor="middle" x="384" y="-325.3" font-family="Times,serif" font-size="14.00">6.0 maint</text>
</g>
<!-- 61&#45;&gt;m60 -->
<g id="edge7" class="edge"><title>61&#45;&gt;m60</title>
<path fill="none" stroke="black" d="M384,-382.697C384,-374.983 384,-365.712 384,-357.112"/>
<polygon fill="black" stroke="black" points="387.5,-357.104 384,-347.104 380.5,-357.104 387.5,-357.104"/>
</g>
<!-- m61 -->
<g id="node11" class="node"><title>m61</title>
<ellipse fill="#eea9b8" stroke="#eea9b8" cx="384" cy="-257" rx="44.271" ry="18"/>
<text text-anchor="middle" x="384" y="-253.3" font-family="Times,serif" font-size="14.00">6.1 maint</text>
</g>
<!-- m60&#45;&gt;m61 -->
<g id="edge8" class="edge"><title>m60&#45;&gt;m61</title>
<path fill="none" stroke="black" d="M384,-310.697C384,-302.983 384,-293.712 384,-285.112"/>
<polygon fill="black" stroke="black" points="387.5,-285.104 384,-275.104 380.5,-285.104 387.5,-285.104"/>
</g>
<!-- m62 -->
<g id="node12" class="node"><title>m62</title>
<ellipse fill="#cd919e" stroke="#cd919e" cx="384" cy="-185" rx="44.271" ry="18"/>
<text text-anchor="middle" x="384" y="-181.3" font-family="Times,serif" font-size="14.00">6.2 maint</text>
</g>
<!-- m61&#45;&gt;m62 -->
<g id="edge9" class="edge"><title>m61&#45;&gt;m62</title>
<path fill="none" stroke="black" d="M384,-238.697C384,-230.983 384,-221.712 384,-213.112"/>
<polygon fill="black" stroke="black" points="387.5,-213.104 384,-203.104 380.5,-213.104 387.5,-213.104"/>
</g>
<!-- m63 -->
<g id="node13" class="node"><title>m63</title>
<ellipse fill="salmon" stroke="salmon" cx="384" cy="-113" rx="27" ry="18"/>
<text text-anchor="middle" x="384" y="-109.3" font-family="Times,serif" font-size="14.00">6.3</text>
</g>
<!-- m62&#45;&gt;m63 -->
<g id="edge10" class="edge"><title>m62&#45;&gt;m63</title>
<path fill="none" stroke="black" d="M384,-166.697C384,-158.983 384,-149.712 384,-141.112"/>
<polygon fill="black" stroke="black" points="387.5,-141.104 384,-131.104 380.5,-141.104 387.5,-141.104"/>
</g>
<!-- T -->
<g id="node14" class="node"><title>T</title>
<ellipse fill="tomato" stroke="tomato" cx="384" cy="-41" rx="29.3722" ry="18"/>
<text text-anchor="middle" x="384" y="-37.3" font-family="Times,serif" font-size="14.00">trunk</text>
</g>
<!-- m63&#45;&gt;T -->
<g id="edge11" class="edge"><title>m63&#45;&gt;T</title>
<path fill="none" stroke="black" d="M384,-94.6966C384,-86.9827 384,-77.7125 384,-69.1124"/>
<polygon fill="black" stroke="black" points="387.5,-69.1043 384,-59.1043 380.5,-69.1044 387.5,-69.1043"/>
</g>
<!-- 21626 -->
<g id="node17" class="node"><title>21626</title>
<a xlink:href="https://bugzilla.atlanta.hp.com:1181/bugzilla/show_bug.cgi?id=21626" xlink:title="21626 externally managed">
<ellipse fill="none" stroke="red" cx="573" cy="-709" rx="104.461" ry="18"/>
<text text-anchor="middle" x="573" y="-705.3" font-family="Times,serif" font-size="14.00">21626 externally managed</text>
</a>
</g>
<!-- 25172 -->
<g id="node18" class="node"><title>25172</title>
<a xlink:href="https://bugzilla.atlanta.hp.com:1181/bugzilla/show_bug.cgi?id=25172" xlink:title="25172">
<ellipse fill="green" stroke="green" cx="464" cy="-41" rx="32.2457" ry="18"/>
<text text-anchor="middle" x="464" y="-37.3" font-family="Times,serif" font-size="14.00">25172</text>
</a>
</g>
<!-- 21626&#45;&gt;25172 -->
<g id="edge13" class="edge"><title>21626&#45;&gt;25172</title>
<path fill="none" stroke="green" d="M551.725,-691.347C520.004,-664.468 464,-608.204 464,-546 464,-546 464,-546 464,-184 464,-143.996 464,-97.6528 464,-69.0798"/>
<polygon fill="green" stroke="green" points="467.5,-69.0492 464,-59.0493 460.5,-69.0493 467.5,-69.0492"/>
</g>
<!-- 25173 -->
<g id="node19" class="node"><title>25173</title>
<a xlink:href="https://bugzilla.atlanta.hp.com:1181/bugzilla/show_bug.cgi?id=25173" xlink:title="25173">
<ellipse fill="salmon" stroke="salmon" cx="524" cy="-113" rx="32.2457" ry="18"/>
<text text-anchor="middle" x="524" y="-109.3" font-family="Times,serif" font-size="14.00">25173</text>
</a>
</g>
<!-- 21626&#45;&gt;25173 -->
<g id="edge15" class="edge"><title>21626&#45;&gt;25173</title>
<path fill="none" stroke="green" d="M564.24,-691.013C550.146,-662.061 524,-600.947 524,-546 524,-546 524,-546 524,-256 524,-215.996 524,-169.653 524,-141.08"/>
<polygon fill="green" stroke="green" points="527.5,-141.049 524,-131.049 520.5,-141.049 527.5,-141.049"/>
</g>
<!-- 25174 -->
<g id="node20" class="node"><title>25174</title>
<a xlink:href="https://bugzilla.atlanta.hp.com:1181/bugzilla/show_bug.cgi?id=25174" xlink:title="25174">
<ellipse fill="#cd919e" stroke="#cd919e" cx="584" cy="-185" rx="32.2457" ry="18"/>
<text text-anchor="middle" x="584" y="-181.3" font-family="Times,serif" font-size="14.00">25174</text>
</a>
</g>
<!-- 21626&#45;&gt;25174 -->
<g id="edge17" class="edge"><title>21626&#45;&gt;25174</title>
<path fill="none" stroke="green" d="M573,-690.974C573,-661.458 573,-598.875 573,-546 573,-546 573,-546 573,-328 573,-287.876 577.42,-241.565 580.656,-213.032"/>
<polygon fill="green" stroke="green" points="584.142,-213.355 581.827,-203.016 577.189,-212.542 584.142,-213.355"/>
</g>
<!-- 25562 -->
<g id="node21" class="node"><title>25562</title>
<a xlink:href="https://bugzilla.atlanta.hp.com:1181/bugzilla/show_bug.cgi?id=25562" xlink:title="25562">
<ellipse fill="#eea9b8" stroke="#eea9b8" cx="633" cy="-257" rx="32.2457" ry="18"/>
<text text-anchor="middle" x="633" y="-253.3" font-family="Times,serif" font-size="14.00">25562</text>
</a>
</g>
<!-- 21626&#45;&gt;25562 -->
<g id="edge19" class="edge"><title>21626&#45;&gt;25562</title>
<path fill="none" stroke="green" d="M580.509,-690.879C592.589,-661.729 615,-600.333 615,-546 615,-546 615,-546 615,-400 615,-359.676 622.232,-313.418 627.528,-284.951"/>
<polygon fill="green" stroke="green" points="630.998,-285.441 629.444,-274.961 624.123,-284.123 630.998,-285.441"/>
</g>
<!-- 25563 -->
<g id="node22" class="node"><title>25563</title>
<a xlink:href="https://bugzilla.atlanta.hp.com:1181/bugzilla/show_bug.cgi?id=25563" xlink:title="25563">
<ellipse fill="#e0e0e0" stroke="#e0e0e0" cx="675" cy="-329" rx="32.2457" ry="18"/>
<text text-anchor="middle" x="675" y="-325.3" font-family="Times,serif" font-size="14.00">25563</text>
</a>
</g>
<!-- 21626&#45;&gt;25563 -->
<g id="edge21" class="edge"><title>21626&#45;&gt;25563</title>
<path fill="none" stroke="green" d="M592.667,-691.277C622.307,-664.088 675,-607.153 675,-546 675,-546 675,-546 675,-472 675,-431.996 675,-385.653 675,-357.08"/>
<polygon fill="green" stroke="green" points="678.5,-357.049 675,-347.049 671.5,-357.049 678.5,-357.049"/>
</g>
<!-- 24651 -->
<g id="node28" class="node"><title>24651</title>
<a xlink:href="https://bugzilla.atlanta.hp.com:1181/bugzilla/show_bug.cgi?id=24651" xlink:title="24651 Cannot add groups\nwith ( and &amp; in the\nname to share admins">
<ellipse fill="none" stroke="red" cx="818" cy="-709" rx="111.024" ry="37.4533"/>
<text text-anchor="middle" x="818" y="-720.3" font-family="Times,serif" font-size="14.00">24651 Cannot add groups</text>
<text text-anchor="middle" x="818" y="-705.3" font-family="Times,serif" font-size="14.00">with ( and &amp; in the</text>
<text text-anchor="middle" x="818" y="-690.3" font-family="Times,serif" font-size="14.00">name to share admins</text>
</a>
</g>
<!-- 24655 -->
<g id="node29" class="node"><title>24655</title>
<a xlink:href="https://bugzilla.atlanta.hp.com:1181/bugzilla/show_bug.cgi?id=24655" xlink:title="24655">
<ellipse fill="#eea9b8" stroke="#eea9b8" cx="737" cy="-257" rx="32.2457" ry="18"/>
<text text-anchor="middle" x="737" y="-253.3" font-family="Times,serif" font-size="14.00">24655</text>
</a>
</g>
<!-- 24651&#45;&gt;24655 -->
<g id="edge23" class="edge"><title>24651&#45;&gt;24655</title>
<path fill="none" stroke="green" d="M788.299,-672.56C765.181,-641.312 737,-593.482 737,-546 737,-546 737,-546 737,-400 737,-359.996 737,-313.653 737,-285.08"/>
<polygon fill="green" stroke="green" points="740.5,-285.049 737,-275.049 733.5,-285.049 740.5,-285.049"/>
</g>
<!-- 24654 -->
<g id="node30" class="node"><title>24654</title>
<a xlink:href="https://bugzilla.atlanta.hp.com:1181/bugzilla/show_bug.cgi?id=24654" xlink:title="24654">
<ellipse fill="#cd919e" stroke="#cd919e" cx="776" cy="-185" rx="32.2457" ry="18"/>
<text text-anchor="middle" x="776" y="-181.3" font-family="Times,serif" font-size="14.00">24654</text>
</a>
</g>
<!-- 24651&#45;&gt;24654 -->
<g id="edge25" class="edge"><title>24651&#45;&gt;24654</title>
<path fill="none" stroke="green" d="M810.537,-671.501C804.501,-638.782 797,-589.391 797,-546 797,-546 797,-546 797,-328 797,-287.561 788.563,-241.334 782.384,-212.905"/>
<polygon fill="green" stroke="green" points="785.751,-211.922 780.149,-202.93 778.92,-213.453 785.751,-211.922"/>
</g>
<!-- 25102 -->
<g id="node31" class="node"><title>25102</title>
<a xlink:href="https://bugzilla.atlanta.hp.com:1181/bugzilla/show_bug.cgi?id=25102" xlink:title="25102">
<ellipse fill="salmon" stroke="salmon" cx="836" cy="-113" rx="32.2457" ry="18"/>
<text text-anchor="middle" x="836" y="-109.3" font-family="Times,serif" font-size="14.00">25102</text>
</a>
</g>
<!-- 24651&#45;&gt;25102 -->
<g id="edge27" class="edge"><title>24651&#45;&gt;25102</title>
<path fill="none" stroke="green" d="M824.397,-671.455C829.571,-638.705 836,-589.296 836,-546 836,-546 836,-546 836,-256 836,-215.996 836,-169.653 836,-141.08"/>
<polygon fill="green" stroke="green" points="839.5,-141.049 836,-131.049 832.5,-141.049 839.5,-141.049"/>
</g>
<!-- 24653 -->
<g id="node32" class="node"><title>24653</title>
<a xlink:href="https://bugzilla.atlanta.hp.com:1181/bugzilla/show_bug.cgi?id=24653" xlink:title="24653">
<ellipse fill="tomato" stroke="tomato" cx="896" cy="-41" rx="32.2457" ry="18"/>
<text text-anchor="middle" x="896" y="-37.3" font-family="Times,serif" font-size="14.00">24653</text>
</a>
</g>
<!-- 24651&#45;&gt;24653 -->
<g id="edge29" class="edge"><title>24651&#45;&gt;24653</title>
<path fill="none" stroke="green" d="M846.38,-672.696C868.683,-641.345 896,-593.291 896,-546 896,-546 896,-546 896,-184 896,-143.996 896,-97.6528 896,-69.0798"/>
<polygon fill="green" stroke="green" points="899.5,-69.0492 896,-59.0493 892.5,-69.0493 899.5,-69.0492"/>
</g>
<!-- 22783 -->
<g id="node37" class="node"><title>22783</title>
<a xlink:href="https://bugzilla.atlanta.hp.com:1181/bugzilla/show_bug.cgi?id=22783" xlink:title="22783 Cannot add users with\nnames beginning in &#39;n&#39;">
<ellipse fill="none" stroke="red" cx="1078" cy="-709" rx="124.176" ry="26.7407"/>
<text text-anchor="middle" x="1078" y="-712.8" font-family="Times,serif" font-size="14.00">22783 Cannot add users with</text>
<text text-anchor="middle" x="1078" y="-697.8" font-family="Times,serif" font-size="14.00">names beginning in &#39;n&#39;</text>
</a>
</g>
<!-- 22788 -->
<g id="node38" class="node"><title>22788</title>
<a xlink:href="https://bugzilla.atlanta.hp.com:1181/bugzilla/show_bug.cgi?id=22788" xlink:title="22788">
<ellipse fill="#e0e0e0" stroke="#e0e0e0" cx="971" cy="-617" rx="32.2457" ry="18"/>
<text text-anchor="middle" x="971" y="-613.3" font-family="Times,serif" font-size="14.00">22788</text>
</a>
</g>
<!-- 22783&#45;&gt;22788 -->
<g id="edge31" class="edge"><title>22783&#45;&gt;22788</title>
<path fill="none" stroke="green" d="M1047.91,-682.69C1031.49,-668.877 1011.4,-651.98 995.871,-638.919"/>
<polygon fill="green" stroke="green" points="998.116,-636.234 988.21,-632.476 993.61,-641.591 998.116,-636.234"/>
</g>
<!-- 22787 -->
<g id="node39" class="node"><title>22787</title>
<a xlink:href="https://bugzilla.atlanta.hp.com:1181/bugzilla/show_bug.cgi?id=22787" xlink:title="22787">
<ellipse fill="#e0e0e0" stroke="#e0e0e0" cx="1017" cy="-329" rx="32.2457" ry="18"/>
<text text-anchor="middle" x="1017" y="-325.3" font-family="Times,serif" font-size="14.00">22787</text>
</a>
</g>
<!-- 22783&#45;&gt;22787 -->
<g id="edge33" class="edge"><title>22783&#45;&gt;22787</title>
<path fill="none" stroke="green" d="M1065.53,-682.014C1051.6,-650.563 1031,-595.638 1031,-546 1031,-546 1031,-546 1031,-472 1031,-431.802 1025.38,-385.511 1021.26,-357.002"/>
<polygon fill="green" stroke="green" points="1024.7,-356.371 1019.77,-346.996 1017.78,-357.402 1024.7,-356.371"/>
</g>
<!-- 22786 -->
<g id="node40" class="node"><title>22786</title>
<a xlink:href="https://bugzilla.atlanta.hp.com:1181/bugzilla/show_bug.cgi?id=22786" xlink:title="22786">
<ellipse fill="#eea9b8" stroke="#eea9b8" cx="1055" cy="-257" rx="32.2457" ry="18"/>
<text text-anchor="middle" x="1055" y="-253.3" font-family="Times,serif" font-size="14.00">22786</text>
</a>
</g>
<!-- 22783&#45;&gt;22786 -->
<g id="edge35" class="edge"><title>22783&#45;&gt;22786</title>
<path fill="none" stroke="green" d="M1077.74,-681.906C1077.44,-649.891 1077,-593.954 1077,-546 1077,-546 1077,-546 1077,-400 1077,-359.519 1068.16,-313.303 1061.69,-284.888"/>
<polygon fill="green" stroke="green" points="1065.04,-283.853 1059.35,-274.918 1058.23,-285.453 1065.04,-283.853"/>
</g>
<!-- 22785 -->
<g id="node41" class="node"><title>22785</title>
<a xlink:href="https://bugzilla.atlanta.hp.com:1181/bugzilla/show_bug.cgi?id=22785" xlink:title="22785">
<ellipse fill="#cd919e" stroke="#cd919e" cx="1104" cy="-185" rx="32.2457" ry="18"/>
<text text-anchor="middle" x="1104" y="-181.3" font-family="Times,serif" font-size="14.00">22785</text>
</a>
</g>
<!-- 22783&#45;&gt;22785 -->
<g id="edge37" class="edge"><title>22783&#45;&gt;22785</title>
<path fill="none" stroke="green" d="M1087.72,-682.041C1098.68,-650.39 1115,-595.044 1115,-546 1115,-546 1115,-546 1115,-328 1115,-287.876 1110.58,-241.565 1107.34,-213.032"/>
<polygon fill="green" stroke="green" points="1110.81,-212.542 1106.17,-203.016 1103.86,-213.355 1110.81,-212.542"/>
</g>
<!-- 25528 -->
<g id="node42" class="node"><title>25528</title>
<a xlink:href="https://bugzilla.atlanta.hp.com:1181/bugzilla/show_bug.cgi?id=25528" xlink:title="25528">
<ellipse fill="salmon" stroke="salmon" cx="1164" cy="-113" rx="32.2457" ry="18"/>
<text text-anchor="middle" x="1164" y="-109.3" font-family="Times,serif" font-size="14.00">25528</text>
</a>
</g>
<!-- 22783&#45;&gt;25528 -->
<g id="edge39" class="edge"><title>22783&#45;&gt;25528</title>
<path fill="none" stroke="green" d="M1101.73,-682.427C1127.18,-652.23 1164,-599.336 1164,-546 1164,-546 1164,-546 1164,-256 1164,-215.996 1164,-169.653 1164,-141.08"/>
<polygon fill="green" stroke="green" points="1167.5,-141.049 1164,-131.049 1160.5,-141.049 1167.5,-141.049"/>
</g>
<!-- 25527 -->
<g id="node43" class="node"><title>25527</title>
<a xlink:href="https://bugzilla.atlanta.hp.com:1181/bugzilla/show_bug.cgi?id=25527" xlink:title="25527">
<ellipse fill="tomato" stroke="tomato" cx="1224" cy="-41" rx="32.2457" ry="18"/>
<text text-anchor="middle" x="1224" y="-37.3" font-family="Times,serif" font-size="14.00">25527</text>
</a>
</g>
<!-- 22783&#45;&gt;25527 -->
<g id="edge41" class="edge"><title>22783&#45;&gt;25527</title>
<path fill="none" stroke="green" d="M1121.8,-683.829C1164.81,-656.516 1224,-607.714 1224,-546 1224,-546 1224,-546 1224,-184 1224,-143.996 1224,-97.6528 1224,-69.0798"/>
<polygon fill="green" stroke="green" points="1227.5,-69.0492 1224,-59.0493 1220.5,-69.0493 1227.5,-69.0492"/>
</g>
</g>
</svg>
