<?xml version="1.0" encoding="UTF-8" standalone="no"?>
<!DOCTYPE svg PUBLIC "-//W3C//DTD SVG 1.1//EN"
 "http://www.w3.org/Graphics/SVG/1.1/DTD/svg11.dtd">
<!-- Generated by graphviz version 2.28.0 (20120216.1600)
 -->
<!-- Title: Storage Pages: 1 -->
<svg width="3114pt" height="602pt"
 viewBox="0.00 0.00 3114.00 602.00" xmlns="http://www.w3.org/2000/svg" xmlns:xlink="http://www.w3.org/1999/xlink">
<g id="graph1" class="graph" transform="scale(1 1) rotate(0) translate(4 598)">
<title>Storage</title>
<polygon fill="white" stroke="white" points="-4,5 -4,-598 3111,-598 3111,5 -4,5"/>
<text text-anchor="middle" x="1553" y="-7.8" font-family="Times,serif" font-size="14.00">Storage Business Units</text>
<g id="graph2" class="cluster"><title>cluster_info</title>
<polygon fill="none" stroke="black" points="46,-511 46,-586 492,-586 492,-511 46,-511"/>
<text text-anchor="middle" x="269" y="-570.8" font-family="Times,serif" font-size="14.00">Storage Business Units</text>
</g>
<g id="graph7" class="cluster"><title>cluster_pm</title>
<polygon fill="none" stroke="black" points="2964,-217 2964,-439 3098,-439 3098,-217 2964,-217"/>
<text text-anchor="middle" x="3031" y="-423.8" font-family="Times,serif" font-size="14.00">Product Management</text>
</g>
<g id="graph8" class="cluster"><title>cluster_ct</title>
<polygon fill="none" stroke="black" points="2852,-217 2852,-439 2956,-439 2956,-217 2852,-217"/>
<text text-anchor="middle" x="2904" y="-423.8" font-family="Times,serif" font-size="14.00">CTO</text>
</g>
<g id="graph9" class="cluster"><title>cluster_lt</title>
<polygon fill="none" stroke="black" points="2638,-217 2638,-439 2844,-439 2844,-217 2638,-217"/>
<text text-anchor="middle" x="2741" y="-423.8" font-family="Times,serif" font-size="14.00">LTFS</text>
</g>
<g id="graph10" class="cluster"><title>cluster_qa</title>
<polygon fill="none" stroke="black" points="1539,-39 1539,-364 1856,-364 1856,-39 1539,-39"/>
<text text-anchor="middle" x="1697.5" y="-348.8" font-family="Times,serif" font-size="14.00">QA</text>
</g>
<g id="graph11" class="cluster"><title>cluster_no</title>
<polygon fill="none" stroke="black" points="1143,-39 1143,-364 1531,-364 1531,-39 1143,-39"/>
<text text-anchor="middle" x="1337" y="-348.8" font-family="Times,serif" font-size="14.00">Catalyst</text>
</g>
<g id="graph12" class="cluster"><title>cluster_team</title>
<polygon fill="none" stroke="black" points="2350,-31 2350,-145 3089,-145 3089,-31 2350,-31"/>
<text text-anchor="middle" x="2719.5" y="-129.8" font-family="Times,serif" font-size="14.00">mwr</text>
</g>
<g id="graph13" class="cluster"><title>cluster_pml</title>
<polygon fill="none" stroke="black" points="2624,-39 2624,-114 3081,-114 3081,-39 2624,-39"/>
<text text-anchor="middle" x="2852.5" y="-98.8" font-family="Times,serif" font-size="14.00">PML</text>
</g>
<g id="graph14" class="cluster"><title>cluster_vds</title>
<polygon fill="none" stroke="black" points="2358,-39 2358,-114 2616,-114 2616,-39 2358,-39"/>
<text text-anchor="middle" x="2487" y="-98.8" font-family="Times,serif" font-size="14.00">VDSi</text>
</g>
<!-- note -->
<g id="node2" class="node"><title>note</title>
<text text-anchor="middle" x="378" y="-533.3" font-family="Times,serif" font-size="14.00">Business entity nodes are click&#45;able</text>
</g>
<!-- be -->
<g id="node3" class="node"><title>be</title>
<ellipse fill="none" stroke="black" cx="190" cy="-537" rx="64.0172" ry="18"/>
<text text-anchor="middle" x="190" y="-533.3" font-family="Times,serif" font-size="14.00">Business entity</text>
</g>
<!-- pl -->
<g id="node4" class="node"><title>pl</title>
<polygon fill="none" stroke="black" points="108,-555 54,-555 54,-519 108,-519 108,-555"/>
<text text-anchor="middle" x="81" y="-533.3" font-family="Times,serif" font-size="14.00">People</text>
</g>
<!-- eg -->
<g id="node5" class="node"><title>eg</title>
<a xlink:href="http://intranet.hp.com/eg/main/Pages/index.aspx" xlink:title="Enterprise Group">
<ellipse fill="none" stroke="black" cx="573" cy="-537" rx="71.2405" ry="18"/>
<text text-anchor="middle" x="573" y="-533.3" font-family="Times,serif" font-size="14.00">Enterprise Group</text>
</a>
</g>
<!-- hpst -->
<g id="node6" class="node"><title>hpst</title>
<a xlink:href="http://intranet.hp.com/eg/main/storage/Pages/index.aspx" xlink:title="HP Storage">
<ellipse fill="none" stroke="black" cx="573" cy="-465" rx="51.0191" ry="18"/>
<text text-anchor="middle" x="573" y="-461.3" font-family="Times,serif" font-size="14.00">HP Storage</text>
</a>
</g>
<!-- eg&#45;&gt;hpst -->
<g id="edge6" class="edge"><title>eg&#45;&gt;hpst</title>
<path fill="none" stroke="black" d="M573,-518.697C573,-510.983 573,-501.712 573,-493.112"/>
<polygon fill="black" stroke="black" points="576.5,-493.104 573,-483.104 569.5,-493.104 576.5,-493.104"/>
</g>
<!-- billV -->
<g id="node18" class="node"><title>billV</title>
<polygon fill="none" stroke="black" points="2883,-555 2803,-555 2803,-519 2883,-519 2883,-555"/>
<text text-anchor="middle" x="2843" y="-533.3" font-family="Times,serif" font-size="14.00">Bill Veghte</text>
</g>
<!-- eg&#45;&gt;billV -->
<g id="edge4" class="edge"><title>eg&#45;&gt;billV</title>
<path fill="none" stroke="black" d="M644.492,-537C1360.57,-537 2076.65,-537 2792.73,-537"/>
<polygon fill="black" stroke="black" points="2792.74,-540.5 2802.74,-537 2792.74,-533.5 2792.74,-540.5"/>
</g>
<!-- ddu -->
<g id="node7" class="node"><title>ddu</title>
<a xlink:href="http://intranet.hp.com/tsg/WW2/swd/Pages/DevelopmentUnits.aspx#1" xlink:title="Data Center Development Unit">
<ellipse fill="none" stroke="black" cx="965" cy="-390" rx="121.309" ry="18"/>
<text text-anchor="middle" x="965" y="-386.3" font-family="Times,serif" font-size="14.00">Data Center Development Unit</text>
</a>
</g>
<!-- hpst&#45;&gt;ddu -->
<g id="edge11" class="edge"><title>hpst&#45;&gt;ddu</title>
<path fill="none" stroke="black" d="M623.187,-460.809C668.827,-457.339 737.878,-450.66 797,-439 834.624,-431.58 876.058,-419.782 908.365,-409.741"/>
<polygon fill="black" stroke="black" points="909.592,-413.024 918.083,-406.687 907.494,-406.345 909.592,-413.024"/>
</g>
<!-- udu -->
<g id="node8" class="node"><title>udu</title>
<a xlink:href="http://intranet.hp.com/tsg/WW2/swd/Pages/DevelopmentUnits.aspx#2" xlink:title="Utility Development Unit">
<ellipse fill="none" stroke="black" cx="461" cy="-390" rx="102.061" ry="18"/>
<text text-anchor="middle" x="461" y="-386.3" font-family="Times,serif" font-size="14.00">Utility Development Unit</text>
</a>
</g>
<!-- hpst&#45;&gt;udu -->
<g id="edge13" class="edge"><title>hpst&#45;&gt;udu</title>
<path fill="none" stroke="black" d="M549.794,-448.874C533.935,-438.538 512.66,-424.671 494.911,-413.102"/>
<polygon fill="black" stroke="black" points="496.808,-410.162 486.52,-407.633 492.986,-416.026 496.808,-410.162"/>
</g>
<!-- vdu -->
<g id="node9" class="node"><title>vdu</title>
<a xlink:href="http://intranet.hp.com/tsg/WW2/swd/Pages/DevelopmentUnits.aspx#3" xlink:title="Virtual Development Unit">
<ellipse fill="none" stroke="black" cx="685" cy="-390" rx="103.486" ry="18"/>
<text text-anchor="middle" x="685" y="-386.3" font-family="Times,serif" font-size="14.00">Virtual Development Unit</text>
</a>
</g>
<!-- hpst&#45;&gt;vdu -->
<g id="edge15" class="edge"><title>hpst&#45;&gt;vdu</title>
<path fill="none" stroke="black" d="M596.206,-448.874C612.065,-438.538 633.34,-424.671 651.089,-413.102"/>
<polygon fill="black" stroke="black" points="653.014,-416.026 659.48,-407.633 649.192,-410.162 653.014,-416.026"/>
</g>
<!-- msdu -->
<g id="node10" class="node"><title>msdu</title>
<a xlink:href="http://intranet.hp.com/tsg/WW2/swd/Pages/DevelopmentUnits.aspx#4" xlink:title="Management &amp; Solutions Development Unit">
<ellipse fill="none" stroke="black" cx="170" cy="-390" rx="170.402" ry="18"/>
<text text-anchor="middle" x="170" y="-386.3" font-family="Times,serif" font-size="14.00">Management &amp; Solutions Development Unit</text>
</a>
</g>
<!-- hpst&#45;&gt;msdu -->
<g id="edge17" class="edge"><title>hpst&#45;&gt;msdu</title>
<path fill="none" stroke="black" d="M523.085,-460.544C477.682,-456.894 408.959,-450.102 350,-439 310.369,-431.537 266.641,-419.957 232.209,-410.04"/>
<polygon fill="black" stroke="black" points="232.877,-406.59 222.297,-407.158 230.922,-413.311 232.877,-406.59"/>
</g>
<!-- daveS -->
<g id="node22" class="node"><title>daveS</title>
<polygon fill="none" stroke="black" points="2883.25,-483 2802.75,-483 2802.75,-447 2883.25,-447 2883.25,-483"/>
<text text-anchor="middle" x="2843" y="-461.3" font-family="Times,serif" font-size="14.00">David Scott</text>
</g>
<!-- hpst&#45;&gt;daveS -->
<g id="edge9" class="edge"><title>hpst&#45;&gt;daveS</title>
<path fill="none" stroke="black" d="M624.263,-465C1347.02,-465 2069.78,-465 2792.54,-465"/>
<polygon fill="black" stroke="black" points="2792.64,-468.5 2802.64,-465 2792.64,-461.5 2792.64,-468.5"/>
</g>
<!-- neMac -->
<g id="node28" class="node"><title>neMac</title>
<ellipse fill="none" stroke="black" cx="983" cy="-315" rx="34.1708" ry="18"/>
<text text-anchor="middle" x="983" y="-311.3" font-family="Times,serif" font-size="14.00">neMac</text>
</g>
<!-- ddu&#45;&gt;neMac -->
<g id="edge19" class="edge"><title>ddu&#45;&gt;neMac</title>
<path fill="none" stroke="black" d="M969.266,-371.7C971.388,-363.092 974.002,-352.493 976.377,-342.859"/>
<polygon fill="black" stroke="black" points="979.831,-343.471 978.827,-332.924 973.035,-341.795 979.831,-343.471"/>
</g>
<!-- pesl -->
<g id="node30" class="node"><title>pesl</title>
<polygon fill="none" stroke="black" points="435,-333 349,-333 349,-297 435,-297 435,-333"/>
<text text-anchor="middle" x="392" y="-311.3" font-family="Times,serif" font-size="14.00">Pete Slocum</text>
</g>
<!-- udu&#45;&gt;pesl -->
<g id="edge21" class="edge"><title>udu&#45;&gt;pesl</title>
<path fill="none" stroke="black" d="M444.997,-372.069C436.177,-362.738 425.068,-350.985 415.302,-340.653"/>
<polygon fill="black" stroke="black" points="417.568,-337.955 408.156,-333.092 412.481,-342.764 417.568,-337.955"/>
</g>
<!-- p4k -->
<g id="node11" class="node"><title>p4k</title>
<a xlink:href="http://intranet.hp.com/tsg/ww3/StorageSalesPortal/Pages/HPStoreVirtualStorage.aspx" xlink:title="P4000">
<ellipse fill="none" stroke="black" cx="580" cy="-315" rx="33.2209" ry="18"/>
<text text-anchor="middle" x="580" y="-311.3" font-family="Times,serif" font-size="14.00">P4000</text>
</a>
</g>
<!-- vdu&#45;&gt;p4k -->
<g id="edge28" class="edge"><title>vdu&#45;&gt;p4k</title>
<path fill="none" stroke="black" d="M640.02,-373.746C634.067,-370.911 628.226,-367.666 623,-364 613.561,-357.378 604.752,-348.308 597.597,-339.834"/>
<polygon fill="black" stroke="black" points="600.277,-337.582 591.276,-331.992 594.827,-341.975 600.277,-337.582"/>
</g>
<!-- x9k -->
<g id="node12" class="node"><title>x9k</title>
<a xlink:href="http://intranet.hp.com/tsg/ww3/StorageSalesPortal/Pages/HPStoreAllStorage.aspx" xlink:title="X9000">
<ellipse fill="none" stroke="black" cx="666" cy="-315" rx="34.1708" ry="18"/>
<text text-anchor="middle" x="666" y="-311.3" font-family="Times,serif" font-size="14.00">X9000</text>
</a>
</g>
<!-- vdu&#45;&gt;x9k -->
<g id="edge30" class="edge"><title>vdu&#45;&gt;x9k</title>
<path fill="none" stroke="black" d="M680.497,-371.7C678.257,-363.092 675.498,-352.493 672.991,-342.859"/>
<polygon fill="black" stroke="black" points="676.311,-341.72 670.405,-332.924 669.537,-343.483 676.311,-341.72"/>
</g>
<!-- plat -->
<g id="node13" class="node"><title>plat</title>
<ellipse fill="none" stroke="black" cx="761" cy="-315" rx="42.3701" ry="18"/>
<text text-anchor="middle" x="761" y="-311.3" font-family="Times,serif" font-size="14.00">Platform</text>
</g>
<!-- vdu&#45;&gt;plat -->
<g id="edge32" class="edge"><title>vdu&#45;&gt;plat</title>
<path fill="none" stroke="black" d="M702.627,-372.069C712.888,-362.213 725.962,-349.654 737.136,-338.922"/>
<polygon fill="black" stroke="black" points="739.722,-341.291 744.509,-331.84 734.873,-336.243 739.722,-341.291"/>
</g>
<!-- prOp -->
<g id="node14" class="node"><title>prOp</title>
<ellipse fill="none" stroke="black" cx="876" cy="-315" rx="54.3924" ry="18"/>
<text text-anchor="middle" x="876" y="-311.3" font-family="Times,serif" font-size="14.00">Product Ops</text>
</g>
<!-- vdu&#45;&gt;prOp -->
<g id="edge34" class="edge"><title>vdu&#45;&gt;prOp</title>
<path fill="none" stroke="black" d="M765.949,-378.719C781.623,-375.168 797.63,-370.399 812,-364 826.089,-357.726 839.998,-347.863 851.231,-338.706"/>
<polygon fill="black" stroke="black" points="853.523,-341.351 858.903,-332.224 849.005,-336.005 853.523,-341.351"/>
</g>
<!-- supt -->
<g id="node15" class="node"><title>supt</title>
<ellipse fill="none" stroke="black" cx="491" cy="-315" rx="38.0212" ry="18"/>
<text text-anchor="middle" x="491" y="-311.3" font-family="Times,serif" font-size="14.00">Support</text>
</g>
<!-- vdu&#45;&gt;supt -->
<g id="edge36" class="edge"><title>vdu&#45;&gt;supt</title>
<path fill="none" stroke="black" d="M610.891,-377.398C576.155,-371.784 541.555,-365.861 538,-364 527.082,-358.286 517.171,-349.112 509.294,-340.308"/>
<polygon fill="black" stroke="black" points="511.782,-337.829 502.663,-332.436 506.429,-342.339 511.782,-337.829"/>
</g>
<!-- bill -->
<g id="node33" class="node"><title>bill</title>
<polygon fill="none" stroke="black" points="2077,-408 1997,-408 1997,-372 2077,-372 2077,-408"/>
<text text-anchor="middle" x="2037" y="-386.3" font-family="Times,serif" font-size="14.00">Bill Philbin</text>
</g>
<!-- vdu&#45;&gt;bill -->
<g id="edge24" class="edge"><title>vdu&#45;&gt;bill</title>
<path fill="none" stroke="black" d="M723.39,-406.786C754.846,-419.577 800.882,-436.124 843,-443 869.647,-447.35 1059.01,-443.751 1086,-443 1430.69,-433.402 1844.85,-404.273 1986.59,-393.801"/>
<polygon fill="black" stroke="black" points="1987,-397.28 1996.71,-393.05 1986.48,-390.299 1987,-397.28"/>
</g>
<!-- jemi -->
<g id="node35" class="node"><title>jemi</title>
<polygon fill="none" stroke="black" points="220.25,-333 119.75,-333 119.75,-297 220.25,-297 220.25,-333"/>
<text text-anchor="middle" x="170" y="-311.3" font-family="Times,serif" font-size="14.00">Jennifer Millier</text>
</g>
<!-- msdu&#45;&gt;jemi -->
<g id="edge26" class="edge"><title>msdu&#45;&gt;jemi</title>
<path fill="none" stroke="black" d="M170,-371.7C170,-363.245 170,-352.869 170,-343.373"/>
<polygon fill="black" stroke="black" points="173.5,-343.176 170,-333.176 166.5,-343.176 173.5,-343.176"/>
</g>
<!-- billV&#45;&gt;daveS -->
<g id="edge39" class="edge"><title>billV&#45;&gt;daveS</title>
<path fill="none" stroke="black" d="M2843,-518.697C2843,-510.983 2843,-501.712 2843,-493.112"/>
<polygon fill="black" stroke="black" points="2846.5,-493.104 2843,-483.104 2839.5,-493.104 2846.5,-493.104"/>
</g>
<!-- daveS&#45;&gt;bill -->
<g id="edge40" class="edge"><title>daveS&#45;&gt;bill</title>
<path fill="none" stroke="black" d="M2802.48,-460.33C2667.81,-448.132 2235.36,-408.965 2087.29,-395.554"/>
<polygon fill="black" stroke="black" points="2087.4,-392.05 2077.12,-394.634 2086.77,-399.022 2087.4,-392.05"/>
</g>
<!-- chpwr -->
<g id="node54" class="node"><title>chpwr</title>
<polygon fill="none" stroke="black" points="2828.25,-408 2739.75,-408 2739.75,-372 2828.25,-372 2828.25,-408"/>
<text text-anchor="middle" x="2784" y="-386.3" font-family="Times,serif" font-size="14.00">Chris Powers</text>
</g>
<!-- daveS&#45;&gt;chpwr -->
<g id="edge43" class="edge"><title>daveS&#45;&gt;chpwr</title>
<path fill="none" stroke="black" d="M2829.02,-446.7C2821.67,-437.609 2812.53,-426.296 2804.4,-416.245"/>
<polygon fill="black" stroke="black" points="2806.89,-413.753 2797.88,-408.176 2801.45,-418.153 2806.89,-413.753"/>
</g>
<!-- mlsh -->
<g id="node57" class="node"><title>mlsh</title>
<polygon fill="none" stroke="black" points="2944.5,-408 2861.5,-408 2861.5,-372 2944.5,-372 2944.5,-408"/>
<text text-anchor="middle" x="2903" y="-386.3" font-family="Times,serif" font-size="14.00">Milan Shetti</text>
</g>
<!-- daveS&#45;&gt;mlsh -->
<g id="edge45" class="edge"><title>daveS&#45;&gt;mlsh</title>
<path fill="none" stroke="black" d="M2857.22,-446.7C2864.77,-437.518 2874.18,-426.069 2882.5,-415.944"/>
<polygon fill="black" stroke="black" points="2885.24,-418.124 2888.88,-408.176 2879.83,-413.679 2885.24,-418.124"/>
</g>
<!-- crnu -->
<g id="node66" class="node"><title>crnu</title>
<polygon fill="none" stroke="black" points="3061.25,-408 2976.75,-408 2976.75,-372 3061.25,-372 3061.25,-408"/>
<text text-anchor="middle" x="3019" y="-386.3" font-family="Times,serif" font-size="14.00">Craig Nunes</text>
</g>
<!-- daveS&#45;&gt;crnu -->
<g id="edge47" class="edge"><title>daveS&#45;&gt;crnu</title>
<path fill="none" stroke="black" d="M2883.52,-460.115C2906.77,-456.736 2936.02,-450.486 2960,-439 2972.59,-432.968 2984.85,-423.731 2994.9,-414.964"/>
<polygon fill="black" stroke="black" points="2997.4,-417.42 3002.45,-408.105 2992.69,-412.239 2997.4,-417.42"/>
</g>
<!-- wayj -->
<g id="node45" class="node"><title>wayj</title>
<polygon fill="none" stroke="black" points="1965.25,-333 1864.75,-333 1864.75,-297 1965.25,-297 1965.25,-333"/>
<text text-anchor="middle" x="1915" y="-311.3" font-family="Times,serif" font-size="14.00">Wayland Jeong</text>
</g>
<!-- bill&#45;&gt;wayj -->
<g id="edge41" class="edge"><title>bill&#45;&gt;wayj</title>
<path fill="none" stroke="black" d="M1996.81,-375.184C1989.04,-371.924 1981.11,-368.167 1974,-364 1962.43,-357.216 1950.76,-348.26 1940.88,-339.923"/>
<polygon fill="black" stroke="black" points="1942.89,-337.038 1933.05,-333.127 1938.31,-342.325 1942.89,-337.038"/>
</g>
<!-- andsp -->
<g id="node46" class="node"><title>andsp</title>
<polygon fill="none" stroke="black" points="1435.25,-333 1328.75,-333 1328.75,-297 1435.25,-297 1435.25,-333"/>
<text text-anchor="middle" x="1382" y="-311.3" font-family="Times,serif" font-size="14.00">Andrew Sparkes</text>
</g>
<!-- bill&#45;&gt;andsp -->
<g id="edge65" class="edge"><title>bill&#45;&gt;andsp</title>
<path fill="none" stroke="black" d="M1996.78,-388.314C1893.96,-386.35 1623.37,-379.796 1535,-364 1501.15,-357.949 1464.34,-346.56 1435.31,-336.395"/>
<polygon fill="black" stroke="black" points="1436.37,-333.058 1425.78,-333.003 1434.03,-339.653 1436.37,-333.058"/>
</g>
<!-- ptWh -->
<g id="node63" class="node"><title>ptWh</title>
<polygon fill="none" stroke="black" points="1784.25,-333 1705.75,-333 1705.75,-297 1784.25,-297 1784.25,-333"/>
<text text-anchor="middle" x="1745" y="-311.3" font-family="Times,serif" font-size="14.00">Patti White</text>
</g>
<!-- bill&#45;&gt;ptWh -->
<g id="edge73" class="edge"><title>bill&#45;&gt;ptWh</title>
<path fill="none" stroke="black" d="M1996.95,-388.466C1936.06,-387.074 1823.54,-382.059 1788,-364 1777.72,-358.776 1768.75,-349.979 1761.7,-341.332"/>
<polygon fill="black" stroke="black" points="1764.37,-339.068 1755.55,-333.209 1758.79,-343.294 1764.37,-339.068"/>
</g>
<!-- tsVq -->
<g id="node69" class="node"><title>tsVq</title>
<polygon fill="none" stroke="black" points="2090.25,-333 1983.75,-333 1983.75,-297 2090.25,-297 2090.25,-333"/>
<text text-anchor="middle" x="2037" y="-311.3" font-family="Times,serif" font-size="14.00">Tessa Velasquez</text>
</g>
<!-- bill&#45;&gt;tsVq -->
<g id="edge77" class="edge"><title>bill&#45;&gt;tsVq</title>
<path fill="none" stroke="black" d="M2037,-371.7C2037,-363.245 2037,-352.869 2037,-343.373"/>
<polygon fill="black" stroke="black" points="2040.5,-343.176 2037,-333.176 2033.5,-343.176 2040.5,-343.176"/>
</g>
<!-- lryMar -->
<g id="node70" class="node"><title>lryMar</title>
<polygon fill="none" stroke="black" points="2199.25,-333 2108.75,-333 2108.75,-297 2199.25,-297 2199.25,-333"/>
<text text-anchor="middle" x="2154" y="-311.3" font-family="Times,serif" font-size="14.00">Larry Marsan</text>
</g>
<!-- bill&#45;&gt;lryMar -->
<g id="edge71" class="edge"><title>bill&#45;&gt;lryMar</title>
<path fill="none" stroke="black" d="M2077.32,-375.033C2084.75,-371.827 2092.27,-368.128 2099,-364 2109.86,-357.335 2120.67,-348.501 2129.8,-340.23"/>
<polygon fill="black" stroke="black" points="2132.43,-342.561 2137.35,-333.175 2127.65,-337.447 2132.43,-342.561"/>
</g>
<!-- blTr -->
<g id="node71" class="node"><title>blTr</title>
<polygon fill="none" stroke="black" points="2294.25,-333 2217.75,-333 2217.75,-297 2294.25,-297 2294.25,-333"/>
<text text-anchor="middle" x="2256" y="-311.3" font-family="Times,serif" font-size="14.00">Bill Terrell</text>
</g>
<!-- bill&#45;&gt;blTr -->
<g id="edge67" class="edge"><title>bill&#45;&gt;blTr</title>
<path fill="none" stroke="black" d="M2077.29,-386.046C2120.45,-382.368 2185.74,-375.173 2208,-364 2218.97,-358.494 2228.95,-349.526 2236.94,-340.823"/>
<polygon fill="black" stroke="black" points="2239.8,-342.868 2243.69,-333.013 2234.5,-338.293 2239.8,-342.868"/>
</g>
<!-- chdel -->
<g id="node72" class="node"><title>chdel</title>
<polygon fill="none" stroke="black" points="2427.25,-333 2312.75,-333 2312.75,-297 2427.25,-297 2427.25,-333"/>
<text text-anchor="middle" x="2370" y="-311.3" font-family="Times,serif" font-size="14.00">Chris Del Signore</text>
</g>
<!-- bill&#45;&gt;chdel -->
<g id="edge69" class="edge"><title>bill&#45;&gt;chdel</title>
<path fill="none" stroke="black" d="M2077.24,-387.783C2141.14,-385.422 2262.7,-379.062 2303,-364 2317.78,-358.477 2332.25,-348.81 2343.94,-339.591"/>
<polygon fill="black" stroke="black" points="2346.43,-342.079 2351.93,-333.024 2341.98,-336.672 2346.43,-342.079"/>
</g>
<!-- subbi -->
<g id="node73" class="node"><title>subbi</title>
<polygon fill="none" stroke="black" points="2630.25,-333 2445.75,-333 2445.75,-297 2630.25,-297 2630.25,-333"/>
<text text-anchor="middle" x="2538" y="-311.3" font-family="Times,serif" font-size="14.00">Subramanya Mudigere (Subbi)</text>
</g>
<!-- bill&#45;&gt;subbi -->
<g id="edge75" class="edge"><title>bill&#45;&gt;subbi</title>
<path fill="none" stroke="black" d="M2077.26,-388.393C2164.6,-386.765 2369.02,-381.188 2436,-364 2458.22,-358.298 2481.47,-347.757 2500.15,-338.002"/>
<polygon fill="black" stroke="black" points="2502.04,-340.96 2509.21,-333.152 2498.74,-334.79 2502.04,-340.96"/>
</g>
<!-- ahka -->
<g id="node74" class="node"><title>ahka</title>
<polygon fill="none" stroke="black" points="1135,-333 1035,-333 1035,-297 1135,-297 1135,-333"/>
<text text-anchor="middle" x="1085" y="-311.3" font-family="Times,serif" font-size="14.00">Ahmad Kassak</text>
</g>
<!-- bill&#45;&gt;ahka -->
<g id="edge63" class="edge"><title>bill&#45;&gt;ahka</title>
<path fill="none" stroke="black" d="M1996.96,-388.649C1827.91,-387.067 1179.33,-379.978 1139,-364 1126.43,-359.019 1114.87,-349.72 1105.7,-340.623"/>
<polygon fill="black" stroke="black" points="1108.01,-337.974 1098.59,-333.129 1102.93,-342.792 1108.01,-337.974"/>
</g>
<!-- donH -->
<g id="node41" class="node"><title>donH</title>
<polygon fill="none" stroke="black" points="2349.25,-261 2260.75,-261 2260.75,-225 2349.25,-225 2349.25,-261"/>
<text text-anchor="middle" x="2305" y="-239.3" font-family="Times,serif" font-size="14.00">Don Hopkins</text>
</g>
<!-- michaelr -->
<g id="node42" class="node"><title>michaelr</title>
<polygon fill="none" stroke="black" points="2836.5,-189 2713.5,-189 2713.5,-153 2836.5,-153 2836.5,-189"/>
<text text-anchor="middle" x="2775" y="-167.3" font-family="Times,serif" font-size="14.00">Michael W Roberts</text>
</g>
<!-- donH&#45;&gt;michaelr -->
<g id="edge80" class="edge"><title>donH&#45;&gt;michaelr</title>
<path fill="none" stroke="black" d="M2349.4,-237.546C2423.17,-229.821 2575.49,-212.483 2703,-189 2703.11,-188.98 2703.21,-188.961 2703.32,-188.941"/>
<polygon fill="black" stroke="black" points="2704.28,-192.32 2713.42,-186.965 2702.93,-185.45 2704.28,-192.32"/>
</g>
<!-- bretm -->
<g id="node43" class="node"><title>bretm</title>
<polygon fill="none" stroke="black" points="2952.25,-189 2855.75,-189 2855.75,-153 2952.25,-153 2952.25,-189"/>
<text text-anchor="middle" x="2904" y="-167.3" font-family="Times,serif" font-size="14.00">Bret A McKee</text>
</g>
<!-- donH&#45;&gt;bretm -->
<g id="edge125" class="edge"><title>donH&#45;&gt;bretm</title>
<path fill="none" stroke="black" d="M2349.46,-238.69C2460.94,-230.221 2750.17,-207.158 2845,-189 2845.22,-188.959 2845.43,-188.917 2845.65,-188.875"/>
<polygon fill="black" stroke="black" points="2846.53,-192.266 2855.55,-186.719 2845.04,-185.426 2846.53,-192.266"/>
</g>
<!-- chiti -->
<g id="node44" class="node"><title>chiti</title>
<polygon fill="none" stroke="black" points="1949.25,-189 1864.75,-189 1864.75,-153 1949.25,-153 1949.25,-189"/>
<text text-anchor="middle" x="1907" y="-167.3" font-family="Times,serif" font-size="14.00">Chi&#45;Ti Chen</text>
</g>
<!-- donH&#45;&gt;chiti -->
<g id="edge127" class="edge"><title>donH&#45;&gt;chiti</title>
<path fill="none" stroke="black" d="M2260.71,-237.677C2196.17,-230.847 2072.49,-215.749 1959.29,-189.1"/>
<polygon fill="black" stroke="black" points="1959.96,-185.662 1949.42,-186.741 1958.33,-192.47 1959.96,-185.662"/>
</g>
<!-- dgpt -->
<g id="node80" class="node"><title>dgpt</title>
<polygon fill="none" stroke="black" points="2044.25,-189 1967.75,-189 1967.75,-153 2044.25,-153 2044.25,-189"/>
<text text-anchor="middle" x="2006" y="-167.3" font-family="Times,serif" font-size="14.00">Doug Potts</text>
</g>
<!-- donH&#45;&gt;dgpt -->
<g id="edge129" class="edge"><title>donH&#45;&gt;dgpt</title>
<path fill="none" stroke="black" d="M2260.39,-234.565C2211.74,-226.027 2131.52,-210.693 2054.23,-189.156"/>
<polygon fill="black" stroke="black" points="2054.91,-185.711 2044.33,-186.359 2053,-192.447 2054.91,-185.711"/>
</g>
<!-- lnsw -->
<g id="node81" class="node"><title>lnsw</title>
<polygon fill="none" stroke="black" points="2145.25,-189 2062.75,-189 2062.75,-153 2145.25,-153 2145.25,-189"/>
<text text-anchor="middle" x="2104" y="-167.3" font-family="Times,serif" font-size="14.00">Lance Swift</text>
</g>
<!-- donH&#45;&gt;lnsw -->
<g id="edge131" class="edge"><title>donH&#45;&gt;lnsw</title>
<path fill="none" stroke="black" d="M2260.39,-226.465C2229.26,-215.624 2187.64,-201.129 2155.16,-189.818"/>
<polygon fill="black" stroke="black" points="2155.99,-186.401 2145.4,-186.418 2153.69,-193.012 2155.99,-186.401"/>
</g>
<!-- mtdm -->
<g id="node82" class="node"><title>mtdm</title>
<polygon fill="none" stroke="black" points="2248.25,-189 2163.75,-189 2163.75,-153 2248.25,-153 2248.25,-189"/>
<text text-anchor="middle" x="2206" y="-167.3" font-family="Times,serif" font-size="14.00">Matt Dumm</text>
</g>
<!-- donH&#45;&gt;mtdm -->
<g id="edge133" class="edge"><title>donH&#45;&gt;mtdm</title>
<path fill="none" stroke="black" d="M2280.78,-224.876C2268.08,-215.893 2252.34,-204.763 2238.58,-195.034"/>
<polygon fill="black" stroke="black" points="2240.5,-192.105 2230.31,-189.19 2236.46,-197.821 2240.5,-192.105"/>
</g>
<!-- rblk -->
<g id="node83" class="node"><title>rblk</title>
<polygon fill="none" stroke="black" points="2343.25,-189 2266.75,-189 2266.75,-153 2343.25,-153 2343.25,-189"/>
<text text-anchor="middle" x="2305" y="-167.3" font-family="Times,serif" font-size="14.00">Rob Lucke</text>
</g>
<!-- donH&#45;&gt;rblk -->
<g id="edge135" class="edge"><title>donH&#45;&gt;rblk</title>
<path fill="none" stroke="black" d="M2305,-224.697C2305,-216.983 2305,-207.712 2305,-199.112"/>
<polygon fill="black" stroke="black" points="2308.5,-199.104 2305,-189.104 2301.5,-199.104 2308.5,-199.104"/>
</g>
<!-- plev -->
<g id="node84" class="node"><title>plev</title>
<polygon fill="none" stroke="black" points="2454,-189 2362,-189 2362,-153 2454,-153 2454,-189"/>
<text text-anchor="middle" x="2408" y="-167.3" font-family="Times,serif" font-size="14.00">Paul Evertson</text>
</g>
<!-- donH&#45;&gt;plev -->
<g id="edge137" class="edge"><title>donH&#45;&gt;plev</title>
<path fill="none" stroke="black" d="M2330.2,-224.876C2343.41,-215.893 2359.79,-204.763 2374.11,-195.034"/>
<polygon fill="black" stroke="black" points="2376.4,-197.705 2382.71,-189.19 2372.47,-191.916 2376.4,-197.705"/>
</g>
<!-- stdg -->
<g id="node85" class="node"><title>stdg</title>
<polygon fill="none" stroke="black" points="2567.25,-189 2472.75,-189 2472.75,-153 2567.25,-153 2567.25,-189"/>
<text text-anchor="middle" x="2520" y="-167.3" font-family="Times,serif" font-size="14.00">Steve Douglas</text>
</g>
<!-- donH&#45;&gt;stdg -->
<g id="edge139" class="edge"><title>donH&#45;&gt;stdg</title>
<path fill="none" stroke="black" d="M2349.29,-227.581C2382.1,-216.899 2427.09,-202.249 2462.65,-190.672"/>
<polygon fill="black" stroke="black" points="2463.99,-193.918 2472.41,-187.494 2461.82,-187.262 2463.99,-193.918"/>
</g>
<!-- vsth -->
<g id="node86" class="node"><title>vsth</title>
<polygon fill="none" stroke="black" points="2694.25,-189 2585.75,-189 2585.75,-153 2694.25,-153 2694.25,-189"/>
<text text-anchor="middle" x="2640" y="-167.3" font-family="Times,serif" font-size="14.00">Vasu Thirumalai</text>
</g>
<!-- donH&#45;&gt;vsth -->
<g id="edge141" class="edge"><title>donH&#45;&gt;vsth</title>
<path fill="none" stroke="black" d="M2349.31,-234.268C2401.14,-225.019 2489.7,-208.571 2575.67,-188.992"/>
<polygon fill="black" stroke="black" points="2576.63,-192.363 2585.59,-186.715 2575.06,-185.54 2576.63,-192.363"/>
</g>
<!-- tomh -->
<g id="node122" class="node"><title>tomh</title>
<polygon fill="none" stroke="black" points="3072.25,-83 2971.75,-83 2971.75,-47 3072.25,-47 3072.25,-83"/>
<text text-anchor="middle" x="3022" y="-61.3" font-family="Times,serif" font-size="14.00">Tom Hromatka</text>
</g>
<!-- michaelr&#45;&gt;tomh -->
<g id="edge113" class="edge"><title>michaelr&#45;&gt;tomh</title>
<path fill="none" stroke="black" d="M2836.84,-154.555C2839.93,-153.984 2842.99,-153.46 2846,-153 2871.54,-149.089 2939.26,-157.276 2962,-145 2983.55,-133.364 2999.67,-110.277 3009.75,-92.0523"/>
<polygon fill="black" stroke="black" points="3012.92,-93.5339 3014.46,-83.0514 3006.72,-90.2863 3012.92,-93.5339"/>
</g>
<!-- brandons -->
<g id="node123" class="node"><title>brandons</title>
<polygon fill="none" stroke="black" points="2953.25,-83 2840.75,-83 2840.75,-47 2953.25,-47 2953.25,-83"/>
<text text-anchor="middle" x="2897" y="-61.3" font-family="Times,serif" font-size="14.00">Brandon Schaffer</text>
</g>
<!-- michaelr&#45;&gt;brandons -->
<g id="edge119" class="edge"><title>michaelr&#45;&gt;brandons</title>
<path fill="none" stroke="black" d="M2818.63,-152.935C2822.97,-150.536 2827.18,-147.889 2831,-145 2850.67,-130.131 2868.3,-108.347 2880.39,-91.4175"/>
<polygon fill="black" stroke="black" points="2883.35,-93.2803 2886.18,-83.0695 2877.6,-89.289 2883.35,-93.2803"/>
</g>
<!-- joses -->
<g id="node124" class="node"><title>joses</title>
<polygon fill="none" stroke="black" points="2822,-83 2746,-83 2746,-47 2822,-47 2822,-83"/>
<text text-anchor="middle" x="2784" y="-61.3" font-family="Times,serif" font-size="14.00">Jose Sousa</text>
</g>
<!-- michaelr&#45;&gt;joses -->
<g id="edge115" class="edge"><title>michaelr&#45;&gt;joses</title>
<path fill="none" stroke="black" d="M2776.49,-152.827C2777.89,-136.643 2780.01,-112.131 2781.64,-93.2733"/>
<polygon fill="black" stroke="black" points="2785.14,-93.4636 2782.51,-83.199 2778.16,-92.86 2785.14,-93.4636"/>
</g>
<!-- brianz -->
<g id="node125" class="node"><title>brianz</title>
<polygon fill="none" stroke="black" points="2727.25,-83 2632.75,-83 2632.75,-47 2727.25,-47 2727.25,-83"/>
<text text-anchor="middle" x="2680" y="-61.3" font-family="Times,serif" font-size="14.00">Brian Zimpfer</text>
</g>
<!-- michaelr&#45;&gt;brianz -->
<g id="edge117" class="edge"><title>michaelr&#45;&gt;brianz</title>
<path fill="none" stroke="black" d="M2746.32,-152.794C2743.04,-150.349 2739.85,-147.731 2737,-145 2720.51,-129.207 2705.56,-108.102 2695.11,-91.6784"/>
<polygon fill="black" stroke="black" points="2698.04,-89.7517 2689.79,-83.0996 2692.09,-93.4423 2698.04,-89.7517"/>
</g>
<!-- rosellef -->
<g id="node127" class="node"><title>rosellef</title>
<polygon fill="none" stroke="black" points="2607.25,-83 2476.75,-83 2476.75,-47 2607.25,-47 2607.25,-83"/>
<text text-anchor="middle" x="2542" y="-61.3" font-family="Times,serif" font-size="14.00">Roselle N Fernandez</text>
</g>
<!-- michaelr&#45;&gt;rosellef -->
<g id="edge123" class="edge"><title>michaelr&#45;&gt;rosellef</title>
<path fill="none" stroke="black" d="M2713.45,-154.886C2709.92,-154.202 2706.42,-153.566 2703,-153 2666.44,-146.95 2653.47,-160.917 2620,-145 2595.17,-133.191 2573.79,-110.011 2559.73,-91.8007"/>
<polygon fill="black" stroke="black" points="2562.21,-89.2669 2553.43,-83.3317 2556.59,-93.4445 2562.21,-89.2669"/>
</g>
<!-- cassieh -->
<g id="node128" class="node"><title>cassieh</title>
<polygon fill="none" stroke="black" points="2458,-83 2366,-83 2366,-47 2458,-47 2458,-83"/>
<text text-anchor="middle" x="2412" y="-61.3" font-family="Times,serif" font-size="14.00">Cassie Helms</text>
</g>
<!-- michaelr&#45;&gt;cassieh -->
<g id="edge121" class="edge"><title>michaelr&#45;&gt;cassieh</title>
<path fill="none" stroke="black" d="M2713.49,-154.63C2709.95,-154.011 2706.44,-153.459 2703,-153 2676.99,-149.524 2490.05,-157.539 2467,-145 2446.22,-133.694 2431.6,-110.736 2422.69,-92.4694"/>
<polygon fill="black" stroke="black" points="2425.78,-90.8057 2418.43,-83.1698 2419.41,-93.7193 2425.78,-90.8057"/>
</g>
<!-- wayj&#45;&gt;donH -->
<g id="edge79" class="edge"><title>wayj&#45;&gt;donH</title>
<path fill="none" stroke="black" d="M1965.43,-299.033C1968.32,-298.311 1971.19,-297.627 1974,-297 2070.37,-275.484 2184.4,-259.207 2250.34,-250.676"/>
<polygon fill="black" stroke="black" points="2251.03,-254.117 2260.5,-249.374 2250.14,-247.173 2251.03,-254.117"/>
</g>
<!-- alsltr -->
<g id="node47" class="node"><title>alsltr</title>
<polygon fill="none" stroke="black" points="1216.25,-261 1151.75,-261 1151.75,-225 1216.25,-225 1216.25,-261"/>
<text text-anchor="middle" x="1184" y="-239.3" font-family="Times,serif" font-size="14.00">Al Slater</text>
</g>
<!-- andsp&#45;&gt;alsltr -->
<g id="edge96" class="edge"><title>andsp&#45;&gt;alsltr</title>
<path fill="none" stroke="black" d="M1329.38,-296.954C1299.01,-286.909 1260.18,-273.713 1226,-261 1225.9,-260.964 1225.81,-260.928 1225.71,-260.892"/>
<polygon fill="black" stroke="black" points="1227.08,-257.668 1216.49,-257.363 1224.58,-264.206 1227.08,-257.668"/>
</g>
<!-- siPel -->
<g id="node48" class="node"><title>siPel</title>
<polygon fill="none" stroke="black" points="1318.5,-261 1235.5,-261 1235.5,-225 1318.5,-225 1318.5,-261"/>
<text text-anchor="middle" x="1277" y="-239.3" font-family="Times,serif" font-size="14.00">Simon Pelly</text>
</g>
<!-- andsp&#45;&gt;siPel -->
<g id="edge98" class="edge"><title>andsp&#45;&gt;siPel</title>
<path fill="none" stroke="black" d="M1356.31,-296.876C1342.71,-287.808 1325.83,-276.552 1311.14,-266.759"/>
<polygon fill="black" stroke="black" points="1313.05,-263.825 1302.78,-261.19 1309.16,-269.649 1313.05,-263.825"/>
</g>
<!-- hurat -->
<g id="node49" class="node"><title>hurat</title>
<polygon fill="none" stroke="black" points="1427,-261 1337,-261 1337,-225 1427,-225 1427,-261"/>
<text text-anchor="middle" x="1382" y="-239.3" font-family="Times,serif" font-size="14.00">Hugh Rattray</text>
</g>
<!-- andsp&#45;&gt;hurat -->
<g id="edge104" class="edge"><title>andsp&#45;&gt;hurat</title>
<path fill="none" stroke="black" d="M1382,-296.697C1382,-288.983 1382,-279.712 1382,-271.112"/>
<polygon fill="black" stroke="black" points="1385.5,-271.104 1382,-261.104 1378.5,-271.104 1385.5,-271.104"/>
</g>
<!-- ianRu -->
<g id="node51" class="node"><title>ianRu</title>
<polygon fill="none" stroke="black" points="1522.25,-261 1445.75,-261 1445.75,-225 1522.25,-225 1522.25,-261"/>
<text text-anchor="middle" x="1484" y="-239.3" font-family="Times,serif" font-size="14.00">Ian Russell</text>
</g>
<!-- andsp&#45;&gt;ianRu -->
<g id="edge100" class="edge"><title>andsp&#45;&gt;ianRu</title>
<path fill="none" stroke="black" d="M1406.95,-296.876C1420.04,-287.893 1436.26,-276.763 1450.44,-267.034"/>
<polygon fill="black" stroke="black" points="1452.69,-269.734 1458.95,-261.19 1448.73,-263.962 1452.69,-269.734"/>
</g>
<!-- trhn -->
<g id="node50" class="node"><title>trhn</title>
<polygon fill="none" stroke="black" points="1314.25,-189 1225.75,-189 1225.75,-153 1314.25,-153 1314.25,-189"/>
<text text-anchor="middle" x="1270" y="-167.3" font-family="Times,serif" font-size="14.00">Tracey Hains</text>
</g>
<!-- hurat&#45;&gt;trhn -->
<g id="edge105" class="edge"><title>hurat&#45;&gt;trhn</title>
<path fill="none" stroke="black" d="M1354.6,-224.876C1340.09,-215.808 1322.08,-204.552 1306.41,-194.759"/>
<polygon fill="black" stroke="black" points="1307.84,-191.522 1297.5,-189.19 1304.13,-197.458 1307.84,-191.522"/>
</g>
<!-- ianbk -->
<g id="node52" class="node"><title>ianbk</title>
<polygon fill="none" stroke="black" points="1403,-189 1333,-189 1333,-153 1403,-153 1403,-189"/>
<text text-anchor="middle" x="1368" y="-167.3" font-family="Times,serif" font-size="14.00">Ian Baker</text>
</g>
<!-- ianRu&#45;&gt;ianbk -->
<g id="edge101" class="edge"><title>ianRu&#45;&gt;ianbk</title>
<path fill="none" stroke="black" d="M1455.62,-224.876C1440.46,-215.724 1421.59,-204.342 1405.26,-194.485"/>
<polygon fill="black" stroke="black" points="1406.86,-191.36 1396.49,-189.19 1403.24,-197.353 1406.86,-191.36"/>
</g>
<!-- mrMa -->
<g id="node61" class="node"><title>mrMa</title>
<polygon fill="none" stroke="black" points="1522.25,-189 1421.75,-189 1421.75,-153 1522.25,-153 1522.25,-189"/>
<text text-anchor="middle" x="1472" y="-167.3" font-family="Times,serif" font-size="14.00">Martin Mathias</text>
</g>
<!-- ianRu&#45;&gt;mrMa -->
<g id="edge107" class="edge"><title>ianRu&#45;&gt;mrMa</title>
<path fill="none" stroke="black" d="M1481.03,-224.697C1479.71,-216.983 1478.12,-207.712 1476.65,-199.112"/>
<polygon fill="black" stroke="black" points="1480.07,-198.369 1474.93,-189.104 1473.17,-199.552 1480.07,-198.369"/>
</g>
<!-- pecmbl -->
<g id="node53" class="node"><title>pecmbl</title>
<polygon fill="none" stroke="black" points="1410,-83 1324,-83 1324,-47 1410,-47 1410,-83"/>
<text text-anchor="middle" x="1367" y="-61.3" font-family="Times,serif" font-size="14.00">Pete Camble</text>
</g>
<!-- ianbk&#45;&gt;pecmbl -->
<g id="edge102" class="edge"><title>ianbk&#45;&gt;pecmbl</title>
<path fill="none" stroke="black" d="M1367.83,-152.827C1367.68,-136.643 1367.44,-112.131 1367.26,-93.2733"/>
<polygon fill="black" stroke="black" points="1370.76,-93.1648 1367.17,-83.199 1363.76,-93.2322 1370.76,-93.1648"/>
</g>
<!-- mkFle -->
<g id="node55" class="node"><title>mkFle</title>
<polygon fill="none" stroke="black" points="2835.25,-333 2716.75,-333 2716.75,-297 2835.25,-297 2835.25,-333"/>
<text text-anchor="middle" x="2776" y="-311.3" font-family="Times,serif" font-size="14.00">Mark Fleischhauer</text>
</g>
<!-- chpwr&#45;&gt;mkFle -->
<g id="edge58" class="edge"><title>chpwr&#45;&gt;mkFle</title>
<path fill="none" stroke="black" d="M2782.1,-371.7C2781.18,-363.245 2780.04,-352.869 2779,-343.373"/>
<polygon fill="black" stroke="black" points="2782.45,-342.735 2777.88,-333.176 2775.49,-343.498 2782.45,-342.735"/>
</g>
<!-- stFth -->
<g id="node56" class="node"><title>stFth</title>
<polygon fill="none" stroke="black" points="2731.25,-261 2646.75,-261 2646.75,-225 2731.25,-225 2731.25,-261"/>
<text text-anchor="middle" x="2689" y="-239.3" font-family="Times,serif" font-size="14.00">Stan Feather</text>
</g>
<!-- mkFle&#45;&gt;stFth -->
<g id="edge59" class="edge"><title>mkFle&#45;&gt;stFth</title>
<path fill="none" stroke="black" d="M2754.49,-296.697C2743.54,-287.881 2730.05,-277.032 2718.18,-267.474"/>
<polygon fill="black" stroke="black" points="2720.24,-264.646 2710.26,-261.104 2715.86,-270.1 2720.24,-264.646"/>
</g>
<!-- chMtn -->
<g id="node60" class="node"><title>chMtn</title>
<polygon fill="none" stroke="black" points="2836,-261 2750,-261 2750,-225 2836,-225 2836,-261"/>
<text text-anchor="middle" x="2793" y="-239.3" font-family="Times,serif" font-size="14.00">Chris Martin</text>
</g>
<!-- mkFle&#45;&gt;chMtn -->
<g id="edge61" class="edge"><title>mkFle&#45;&gt;chMtn</title>
<path fill="none" stroke="black" d="M2780.2,-296.697C2782.1,-288.898 2784.38,-279.509 2786.48,-270.829"/>
<polygon fill="black" stroke="black" points="2789.89,-271.648 2788.85,-261.104 2783.08,-269.996 2789.89,-271.648"/>
</g>
<!-- hlWd -->
<g id="node58" class="node"><title>hlWd</title>
<polygon fill="none" stroke="black" points="2942.25,-333 2863.75,-333 2863.75,-297 2942.25,-297 2942.25,-333"/>
<text text-anchor="middle" x="2903" y="-311.3" font-family="Times,serif" font-size="14.00">Hal Woods</text>
</g>
<!-- mlsh&#45;&gt;hlWd -->
<g id="edge54" class="edge"><title>mlsh&#45;&gt;hlWd</title>
<path fill="none" stroke="black" d="M2903,-371.7C2903,-363.245 2903,-352.869 2903,-343.373"/>
<polygon fill="black" stroke="black" points="2906.5,-343.176 2903,-333.176 2899.5,-343.176 2906.5,-343.176"/>
</g>
<!-- neJhn -->
<g id="node59" class="node"><title>neJhn</title>
<polygon fill="none" stroke="black" points="2947.5,-261 2860.5,-261 2860.5,-225 2947.5,-225 2947.5,-261"/>
<text text-anchor="middle" x="2904" y="-239.3" font-family="Times,serif" font-size="14.00">Neil Johnson</text>
</g>
<!-- hlWd&#45;&gt;neJhn -->
<g id="edge55" class="edge"><title>hlWd&#45;&gt;neJhn</title>
<path fill="none" stroke="black" d="M2903.25,-296.697C2903.36,-288.983 2903.49,-279.712 2903.61,-271.112"/>
<polygon fill="black" stroke="black" points="2907.11,-271.153 2903.76,-261.104 2900.11,-271.053 2907.11,-271.153"/>
</g>
<!-- rmDk -->
<g id="node62" class="node"><title>rmDk</title>
<polygon fill="none" stroke="black" points="1517.25,-83 1428.75,-83 1428.75,-47 1517.25,-47 1517.25,-83"/>
<text text-anchor="middle" x="1473" y="-61.3" font-family="Times,serif" font-size="14.00">Roman Duka</text>
</g>
<!-- mrMa&#45;&gt;rmDk -->
<g id="edge108" class="edge"><title>mrMa&#45;&gt;rmDk</title>
<path fill="none" stroke="black" d="M1472.17,-152.827C1472.32,-136.643 1472.56,-112.131 1472.74,-93.2733"/>
<polygon fill="black" stroke="black" points="1476.24,-93.2322 1472.83,-83.199 1469.24,-93.1648 1476.24,-93.2322"/>
</g>
<!-- ryEv -->
<g id="node64" class="node"><title>ryEv</title>
<polygon fill="none" stroke="black" points="1628.25,-261 1547.75,-261 1547.75,-225 1628.25,-225 1628.25,-261"/>
<text text-anchor="middle" x="1588" y="-239.3" font-family="Times,serif" font-size="14.00">Rhys Evans</text>
</g>
<!-- ptWh&#45;&gt;ryEv -->
<g id="edge88" class="edge"><title>ptWh&#45;&gt;ryEv</title>
<path fill="none" stroke="black" d="M1706.59,-296.876C1685.13,-287.307 1658.2,-275.3 1635.43,-265.148"/>
<polygon fill="black" stroke="black" points="1636.84,-261.944 1626.28,-261.068 1633.99,-268.337 1636.84,-261.944"/>
</g>
<!-- kakt -->
<g id="node75" class="node"><title>kakt</title>
<polygon fill="none" stroke="black" points="1733.25,-261 1646.75,-261 1646.75,-225 1733.25,-225 1733.25,-261"/>
<text text-anchor="middle" x="1690" y="-239.3" font-family="Times,serif" font-size="14.00">Kari Kechter</text>
</g>
<!-- ptWh&#45;&gt;kakt -->
<g id="edge83" class="edge"><title>ptWh&#45;&gt;kakt</title>
<path fill="none" stroke="black" d="M1731.4,-296.697C1724.88,-288.389 1716.93,-278.277 1709.75,-269.141"/>
<polygon fill="black" stroke="black" points="1712.37,-266.805 1703.44,-261.104 1706.87,-271.13 1712.37,-266.805"/>
</g>
<!-- mkst -->
<g id="node76" class="node"><title>mkst</title>
<polygon fill="none" stroke="black" points="1848,-261 1752,-261 1752,-225 1848,-225 1848,-261"/>
<text text-anchor="middle" x="1800" y="-239.3" font-family="Times,serif" font-size="14.00">Mike Stallings</text>
</g>
<!-- ptWh&#45;&gt;mkst -->
<g id="edge85" class="edge"><title>ptWh&#45;&gt;mkst</title>
<path fill="none" stroke="black" d="M1758.6,-296.697C1765.12,-288.389 1773.07,-278.277 1780.25,-269.141"/>
<polygon fill="black" stroke="black" points="1783.13,-271.13 1786.56,-261.104 1777.63,-266.805 1783.13,-271.13"/>
</g>
<!-- vaBv -->
<g id="node65" class="node"><title>vaBv</title>
<polygon fill="none" stroke="black" points="1642.25,-189 1547.75,-189 1547.75,-153 1642.25,-153 1642.25,-189"/>
<text text-anchor="middle" x="1595" y="-167.3" font-family="Times,serif" font-size="14.00">Val Bogdanov</text>
</g>
<!-- ryEv&#45;&gt;vaBv -->
<g id="edge89" class="edge"><title>ryEv&#45;&gt;vaBv</title>
<path fill="none" stroke="black" d="M1589.73,-224.697C1590.5,-216.983 1591.43,-207.712 1592.29,-199.112"/>
<polygon fill="black" stroke="black" points="1595.78,-199.403 1593.29,-189.104 1588.81,-198.706 1595.78,-199.403"/>
</g>
<!-- paos -->
<g id="node67" class="node"><title>paos</title>
<polygon fill="none" stroke="black" points="3076,-333 2972,-333 2972,-297 3076,-297 3076,-333"/>
<text text-anchor="middle" x="3024" y="-311.3" font-family="Times,serif" font-size="14.00">Patrick Osborne</text>
</g>
<!-- crnu&#45;&gt;paos -->
<g id="edge50" class="edge"><title>crnu&#45;&gt;paos</title>
<path fill="none" stroke="black" d="M3020.18,-371.7C3020.76,-363.245 3021.47,-352.869 3022.13,-343.373"/>
<polygon fill="black" stroke="black" points="3025.63,-343.392 3022.82,-333.176 3018.65,-342.913 3025.63,-343.392"/>
</g>
<!-- stba -->
<g id="node68" class="node"><title>stba</title>
<polygon fill="none" stroke="black" points="3066.25,-261 2981.75,-261 2981.75,-225 3066.25,-225 3066.25,-261"/>
<text text-anchor="middle" x="3024" y="-239.3" font-family="Times,serif" font-size="14.00">Steve Bacon</text>
</g>
<!-- paos&#45;&gt;stba -->
<g id="edge51" class="edge"><title>paos&#45;&gt;stba</title>
<path fill="none" stroke="black" d="M3024,-296.697C3024,-288.983 3024,-279.712 3024,-271.112"/>
<polygon fill="black" stroke="black" points="3027.5,-271.104 3024,-261.104 3020.5,-271.104 3027.5,-271.104"/>
</g>
<!-- mkhd -->
<g id="node77" class="node"><title>mkhd</title>
<polygon fill="none" stroke="black" points="1836,-189 1742,-189 1742,-153 1836,-153 1836,-189"/>
<text text-anchor="middle" x="1789" y="-167.3" font-family="Times,serif" font-size="14.00">Mark Harding</text>
</g>
<!-- mkst&#45;&gt;mkhd -->
<g id="edge86" class="edge"><title>mkst&#45;&gt;mkhd</title>
<path fill="none" stroke="black" d="M1797.28,-224.697C1796.07,-216.983 1794.61,-207.712 1793.26,-199.112"/>
<polygon fill="black" stroke="black" points="1796.7,-198.44 1791.69,-189.104 1789.78,-199.526 1796.7,-198.44"/>
</g>
<!-- mtmg -->
<g id="node78" class="node"><title>mtmg</title>
<polygon fill="none" stroke="black" points="1711.25,-83 1612.75,-83 1612.75,-47 1711.25,-47 1711.25,-83"/>
<text text-anchor="middle" x="1662" y="-61.3" font-family="Times,serif" font-size="14.00">Martin Mennig</text>
</g>
<!-- mkhd&#45;&gt;mtmg -->
<g id="edge91" class="edge"><title>mkhd&#45;&gt;mtmg</title>
<path fill="none" stroke="black" d="M1741.8,-156.721C1734.46,-153.533 1727.25,-149.662 1721,-145 1702.13,-130.925 1686.5,-109.172 1676.09,-92.0535"/>
<polygon fill="black" stroke="black" points="1678.92,-89.9616 1670.85,-83.0981 1672.88,-93.4967 1678.92,-89.9616"/>
</g>
<!-- knmg -->
<g id="node79" class="node"><title>knmg</title>
<polygon fill="none" stroke="black" points="1848,-83 1730,-83 1730,-47 1848,-47 1848,-83"/>
<text text-anchor="middle" x="1789" y="-61.3" font-family="Times,serif" font-size="14.00">Kent Montgomery</text>
</g>
<!-- mkhd&#45;&gt;knmg -->
<g id="edge93" class="edge"><title>mkhd&#45;&gt;knmg</title>
<path fill="none" stroke="black" d="M1789,-152.827C1789,-136.643 1789,-112.131 1789,-93.2733"/>
<polygon fill="black" stroke="black" points="1792.5,-93.199 1789,-83.199 1785.5,-93.199 1792.5,-93.199"/>
</g>
</g>
</svg>
